<?xml version="1.0" standalone="no"?>
<!DOCTYPE svg PUBLIC "-//W3C//DTD SVG 20010904//EN"
 "http://www.w3.org/TR/2001/REC-SVG-20010904/DTD/svg10.dtd">
<svg version="1.0" xmlns="http://www.w3.org/2000/svg"
 width="229.000000pt" height="221.000000pt" viewBox="0 0 229.000000 221.000000"
 preserveAspectRatio="xMidYMid meet">
<metadata>
Created by potrace 1.16, written by Peter Selinger 2001-2019
</metadata>
<g transform="translate(0.000000,221.000000) scale(0.100000,-0.100000)"
fill="#000000" stroke="none">
<path d="M589 2080 c-134 -21 -234 -72 -334 -174 -125 -126 -171 -254 -162
-451 12 -290 113 -446 522 -810 198 -176 362 -345 440 -453 53 -73 63 -82 91
-82 27 0 37 7 65 52 83 130 217 271 495 523 105 95 220 205 254 244 168 187
240 358 240 569 0 258 -160 479 -405 558 -205 67 -437 11 -589 -141 l-61 -61
-61 61 c-126 126 -321 191 -495 165z m162 -130 c152 -28 275 -130 350 -290
l43 -92 44 91 c101 213 292 325 493 292 179 -29 312 -142 369 -312 19 -55 21
-79 17 -174 -11 -243 -90 -360 -482 -714 -197 -178 -292 -275 -418 -426 l-25
-30 -24 30 c-95 123 -201 227 -490 483 -252 224 -347 351 -393 527 -21 83 -20
228 3 303 48 152 180 273 336 307 76 17 109 18 177 5z"/>
</g>
</svg>
